<svg width="1000" height="1000" viewBox="0 0 1000 1000" fill="none" xmlns="http://www.w3.org/2000/svg">
<path d="M230.562 112C390.267 172.9 550.021 233.705 709.87 294.172C740.995 341.592 744.885 403.263 737.104 458.29C818.47 487.561 898.538 520.586 980 549.52C934.898 549.376 893.543 568.97 854.301 589.142C748.103 648.983 656.123 730.344 567.024 812.764C541.039 836.691 517.215 863.651 491.23 887C417.213 859.27 343.629 830.577 269.564 803.087C187.045 770.302 103.038 741.176 21 707.332C78.7821 661.355 127.246 604.788 171.771 546.15C227.488 468.785 274.655 379.962 279.218 282.81C280.323 235.438 271.389 186.669 247.613 145.267C241.705 134.29 236.71 122.832 230.562 112ZM293.628 170.253C324.896 259.268 310.006 358.298 270.188 442.018C225.711 539.121 157.17 623.323 80.9915 697.27C215.336 748.783 349.873 799.621 484.409 850.7C573.364 748.301 655.114 634.877 695.797 503.929C711.167 444.184 717.939 376.784 688.928 320.024C557.081 270.293 425.763 219.214 293.628 170.253Z" fill="#F2F2F2"/>
</svg>
